<?xml version="1.0" encoding="utf-8"?>
<!-- Generator: Adobe Illustrator 17.0.0, SVG Export Plug-In . SVG Version: 6.00 Build 0)  -->
<!DOCTYPE svg PUBLIC "-//W3C//DTD SVG 1.1//EN" "http://www.w3.org/Graphics/SVG/1.1/DTD/svg11.dtd">
<svg version="1.1" id="Capa_1" xmlns="http://www.w3.org/2000/svg" xmlns:xlink="http://www.w3.org/1999/xlink" x="0px" y="0px"
	 width="584.971px" height="622.469px" viewBox="0 0 584.971 622.469" enable-background="new 0 0 584.971 622.469"
	 xml:space="preserve">
<g>
	<path fill="#F3BE49" d="M199.164,121.664c-21.037,0-38.158-17.116-38.158-38.131c0-21.005,17.121-38.099,38.158-38.099
		c20.994,0,38.099,17.094,38.099,38.099C237.263,104.548,220.158,121.664,199.164,121.664 M199.164,61.269
		c-12.321,0-22.329,9.991-22.329,22.264c0,12.294,10.008,22.308,22.329,22.308c12.278,0,22.265-10.014,22.265-22.308
		C221.429,71.26,211.442,61.269,199.164,61.269"/>
	<path fill="#F3BE49" d="M422.02,121.664c-21.016,0-38.104-17.116-38.104-38.131c0-21.005,17.088-38.099,38.104-38.099
		c21.009,0,38.094,17.094,38.094,38.099C460.114,104.548,443.029,121.664,422.02,121.664 M422.02,61.269
		c-12.289,0-22.286,9.991-22.286,22.264c0,12.294,9.997,22.308,22.286,22.308c12.278,0,22.275-10.014,22.275-22.308
		C444.295,71.26,434.298,61.269,422.02,61.269"/>
	<path fill="#699D9C" d="M76.288,562.698c-4.677-7.052-6.143-14.875-4.398-23.482l90.495-357.014
		c1.822-8.987,6.24-15.725,13.256-20.207c7.01-4.473,14.818-5.846,23.421-4.101c8.989,1.822,15.745,6.148,20.268,12.959
		c4.512,6.82,5.868,14.728,4.046,23.716l-90.495,357.013c-1.745,8.606-6.053,15.26-12.903,19.973
		c-6.861,4.717-14.787,6.162-23.775,4.339C87.6,574.15,80.961,569.753,76.288,562.698"/>
	<path fill="#699D9C" d="M506.403,575.895c-8.988,1.822-16.914,0.378-23.775-4.339c-6.85-4.714-11.159-11.367-12.904-19.973
		l-61.346-256.984l46.915-81.858l75.422,326.476c1.746,8.606,0.28,16.43-4.397,23.482
		C521.644,569.753,515.006,574.151,506.403,575.895"/>
	<path fill="#699D9C" d="M315.196,310.128l73.32-132.796c3.076-8.64,8.401-14.685,15.981-18.13
		c7.572-3.436,15.496-3.691,23.766-0.748c8.64,3.075,14.716,8.313,18.231,15.695c3.502,7.39,3.726,15.41,0.651,24.05l-95.755,173.53
		C351.269,371.729,315.077,309.976,315.196,310.128"/>
	<path fill="#699D9C" d="M314.05,416.077c-8.64,3.075-16.69,2.766-24.149-0.933c-7.448-3.698-12.654-9.675-15.599-17.948
		L217.697,294.39l18.092-93.258l97.142,175.196c2.945,8.274,2.6,16.226-1.032,23.869C328.27,407.841,322.32,413.134,314.05,416.077"
		/>
</g>
</svg>
